<svg class="logo" xmlns="http://www.w3.org/2000/svg" xmlns:xlink="http://www.w3.org/1999/xlink" width="100%" height="100%" viewBox="0 0 792 432" preserveAspectRatio="xMidYMid meet" version="1.0">
    <defs>
        <mask id="cutout-mask">
            <!-- Black background for the mask -->
            <rect width="100%" height="100%" fill="white" />
            <!-- Transparent paths to "cut out" -->
            <g fill="black">
                <g transform="translate(67.757615, 273.849098)">
                    <path
                        d="M 58.0625 -85.265625 C 58.96875 -89.765625 61.023438 -92.914062 64.234375 -94.71875 C 67.453125 -96.519531 70.796875 -97.421875 74.265625 -97.421875 C 77.992188 -97.421875 81.015625 -96.582031 83.328125 -94.90625 C 81.535156 -86.414062 79.960938 -78.179688 78.609375 -70.203125 C 77.253906 -62.234375 76.578125 -54.648438 76.578125 -47.453125 C 76.578125 -42.304688 77.023438 -37.289062 77.921875 -32.40625 C 78.828125 -27.519531 80.3125 -22.890625 82.375 -18.515625 C 87.257812 -22.378906 91.535156 -27.039062 95.203125 -32.5 C 98.867188 -37.96875 101.695312 -43.820312 103.6875 -50.0625 C 105.675781 -56.300781 106.671875 -62.441406 106.671875 -68.484375 C 106.671875 -74.910156 105.707031 -80.726562 103.78125 -85.9375 C 101.851562 -91.144531 98.832031 -94.648438 94.71875 -96.453125 C 94.976562 -101.460938 96.390625 -105.222656 98.953125 -107.734375 C 101.523438 -110.242188 104.421875 -111.4375 107.640625 -111.3125 C 111.367188 -111.175781 114.90625 -109.335938 118.25 -105.796875 C 121.59375 -102.265625 123.265625 -96.960938 123.265625 -89.890625 C 123.265625 -81.015625 122.140625 -72.203125 119.890625 -63.453125 C 117.640625 -54.710938 114.617188 -46.453125 110.828125 -38.671875 C 107.035156 -30.890625 102.820312 -23.976562 98.1875 -17.9375 C 93.5625 -11.894531 88.867188 -7.132812 84.109375 -3.65625 C 79.347656 -0.1875 74.910156 1.546875 70.796875 1.546875 C 67.453125 1.546875 64.75 -0.21875 62.6875 -3.75 C 60.632812 -7.289062 59.09375 -11.921875 58.0625 -17.640625 C 57.03125 -23.367188 56.320312 -29.382812 55.9375 -35.6875 C 50.789062 -24.113281 45.257812 -15.015625 39.34375 -8.390625 C 33.4375 -1.765625 27.910156 1.546875 22.765625 1.546875 C 18.390625 1.546875 14.882812 -0.703125 12.25 -5.203125 C 9.613281 -9.703125 7.679688 -15.457031 6.453125 -22.46875 C 5.234375 -29.476562 4.625 -36.710938 4.625 -44.171875 C 4.625 -50.472656 4.976562 -56.515625 5.6875 -62.296875 C 6.394531 -68.085938 7.394531 -72.976562 8.6875 -76.96875 C 8.9375 -78 8.800781 -78.738281 8.28125 -79.1875 C 7.769531 -79.632812 7.195312 -79.859375 6.5625 -79.859375 C 5.269531 -79.859375 4.046875 -79.148438 2.890625 -77.734375 C 1.609375 -79.023438 0.804688 -80.148438 0.484375 -81.109375 C 0.160156 -82.078125 0 -82.945312 0 -83.71875 C 0 -85.257812 1.285156 -87.09375 3.859375 -89.21875 C 6.429688 -91.34375 9.613281 -93.238281 13.40625 -94.90625 C 17.195312 -96.582031 20.832031 -97.421875 24.3125 -97.421875 C 27.78125 -97.421875 30.378906 -96.582031 32.109375 -94.90625 C 33.847656 -93.238281 34.332031 -90.539062 33.5625 -86.8125 C 32.28125 -80.507812 31.1875 -74.015625 30.28125 -67.328125 C 29.382812 -60.640625 28.9375 -54.078125 28.9375 -47.640625 C 28.9375 -41.984375 29.351562 -36.644531 30.1875 -31.625 C 31.019531 -26.613281 32.40625 -22.242188 34.34375 -18.515625 C 40.257812 -24.304688 44.882812 -32.570312 48.21875 -43.3125 C 51.5625 -54.050781 54.84375 -68.035156 58.0625 -85.265625 Z M 58.0625 -85.265625 " />
                </g>
                <g transform="translate(196.814376, 273.849098)">
                    <path
                        d="M 68.28125 -79.671875 C 68.28125 -74.265625 67.023438 -69.019531 64.515625 -63.9375 C 62.015625 -58.863281 57.484375 -53.59375 50.921875 -48.125 C 44.367188 -42.664062 34.851562 -36.460938 22.375 -29.515625 C 23.40625 -24.367188 25.5625 -20.703125 28.84375 -18.515625 C 32.125 -16.328125 35.945312 -15.234375 40.3125 -15.234375 C 44.945312 -15.234375 49.832031 -16.195312 54.96875 -18.125 C 60.113281 -20.0625 64.9375 -22.632812 69.4375 -25.84375 C 73.945312 -29.0625 77.550781 -32.472656 80.25 -36.078125 C 82.820312 -36.585938 84.523438 -36.070312 85.359375 -34.53125 C 86.191406 -32.988281 86.097656 -31.316406 85.078125 -29.515625 C 80.703125 -23.085938 75.457031 -17.523438 69.34375 -12.828125 C 63.238281 -8.128906 56.84375 -4.554688 50.15625 -2.109375 C 43.46875 0.328125 36.972656 1.546875 30.671875 1.546875 C 24.628906 1.546875 19.128906 0.328125 14.171875 -2.109375 C 9.222656 -4.554688 5.269531 -8.351562 2.3125 -13.5 C -0.644531 -18.644531 -2.125 -25.140625 -2.125 -32.984375 C -2.125 -38.003906 -1.445312 -43.4375 -0.09375 -49.28125 C 1.25 -55.132812 3.207031 -60.953125 5.78125 -66.734375 C 8.351562 -72.523438 11.597656 -77.800781 15.515625 -82.5625 C 19.441406 -87.320312 23.976562 -91.113281 29.125 -93.9375 C 34.269531 -96.769531 39.992188 -98.1875 46.296875 -98.1875 C 52.210938 -98.1875 56.742188 -97.253906 59.890625 -95.390625 C 63.046875 -93.523438 65.234375 -91.175781 66.453125 -88.34375 C 67.671875 -85.519531 68.28125 -82.628906 68.28125 -79.671875 Z M 47.640625 -83.140625 C 42.890625 -83.140625 38.875 -81.46875 35.59375 -78.125 C 32.3125 -74.78125 29.707031 -70.597656 27.78125 -65.578125 C 25.851562 -60.566406 24.40625 -55.519531 23.4375 -50.4375 C 22.46875 -45.363281 21.921875 -41.15625 21.796875 -37.8125 C 31.179688 -43.726562 38.765625 -49.929688 44.546875 -56.421875 C 50.335938 -62.921875 53.234375 -69.320312 53.234375 -75.625 C 53.234375 -77.8125 52.71875 -79.609375 51.6875 -81.015625 C 50.664062 -82.429688 49.316406 -83.140625 47.640625 -83.140625 Z M 47.640625 -83.140625 " />
                </g>
                <g transform="translate(276.872001, 273.849098)">
                    <path
                        d="M 67.515625 -29.90625 C 65.328125 -24.113281 61.5625 -18.835938 56.21875 -14.078125 C 50.882812 -9.316406 44.972656 -5.519531 38.484375 -2.6875 C 31.992188 0.132812 25.789062 1.546875 19.875 1.546875 C 13.1875 1.546875 7.65625 -0.671875 3.28125 -5.109375 C -1.09375 -9.546875 -2.632812 -16.84375 -1.34375 -27 C 1.613281 -50.28125 5.148438 -70.179688 9.265625 -86.703125 C 13.378906 -103.234375 18.394531 -115.867188 24.3125 -124.609375 C 30.226562 -133.359375 37.363281 -137.734375 45.71875 -137.734375 C 50.21875 -137.734375 53.914062 -136.382812 56.8125 -133.6875 C 59.707031 -130.988281 61.15625 -127.128906 61.15625 -122.109375 C 61.15625 -114.648438 58.035156 -103.554688 51.796875 -88.828125 C 45.554688 -74.109375 36.203125 -57.234375 23.734375 -38.203125 C 23.597656 -37.035156 23.429688 -35.84375 23.234375 -34.625 C 23.046875 -33.40625 22.890625 -32.21875 22.765625 -31.0625 C 22.117188 -26.039062 22.859375 -22.46875 24.984375 -20.34375 C 27.109375 -18.226562 29.84375 -17.171875 33.1875 -17.171875 C 36.78125 -17.171875 40.632812 -18.101562 44.75 -19.96875 C 48.863281 -21.832031 52.625 -24.304688 56.03125 -27.390625 C 59.445312 -30.472656 61.734375 -33.753906 62.890625 -37.234375 C 64.691406 -37.484375 66.070312 -36.769531 67.03125 -35.09375 C 68 -33.425781 68.160156 -31.695312 67.515625 -29.90625 Z M 47.0625 -125 C 45.007812 -125 42.757812 -122.007812 40.3125 -116.03125 C 37.875 -110.050781 35.460938 -101.851562 33.078125 -91.4375 C 30.703125 -81.019531 28.421875 -68.992188 26.234375 -55.359375 C 31.890625 -65.910156 36.484375 -75.71875 40.015625 -84.78125 C 43.554688 -93.84375 46.160156 -101.554688 47.828125 -107.921875 C 49.503906 -114.296875 50.34375 -118.578125 50.34375 -120.765625 C 50.34375 -122.429688 50.050781 -123.550781 49.46875 -124.125 C 48.894531 -124.707031 48.09375 -125 47.0625 -125 Z M 47.0625 -125 " />
                </g>
                <g transform="translate(339.181928, 273.849098)">
                    <path
                        d="M 85.078125 -29.515625 C 80.703125 -23.085938 75.457031 -17.523438 69.34375 -12.828125 C 63.238281 -8.128906 56.84375 -4.554688 50.15625 -2.109375 C 43.46875 0.328125 36.972656 1.546875 30.671875 1.546875 C 24.628906 1.546875 19.128906 0.328125 14.171875 -2.109375 C 9.222656 -4.554688 5.269531 -8.351562 2.3125 -13.5 C -0.644531 -18.644531 -2.125 -25.140625 -2.125 -32.984375 C -2.125 -40.441406 -0.9375 -47.992188 1.4375 -55.640625 C 3.820312 -63.296875 7.203125 -70.335938 11.578125 -76.765625 C 15.953125 -83.203125 21.160156 -88.378906 27.203125 -92.296875 C 33.242188 -96.222656 39.863281 -98.1875 47.0625 -98.1875 C 62.625 -98.1875 70.40625 -91.953125 70.40625 -79.484375 C 70.40625 -74.078125 69.054688 -70.085938 66.359375 -67.515625 C 63.660156 -64.941406 60.507812 -63.65625 56.90625 -63.65625 C 55.625 -63.65625 54.273438 -63.878906 52.859375 -64.328125 C 51.441406 -64.785156 50.21875 -65.460938 49.1875 -66.359375 C 50.21875 -68.671875 50.988281 -71.015625 51.5 -73.390625 C 52.019531 -75.773438 52.28125 -77.613281 52.28125 -78.90625 C 52.28125 -82.632812 49.898438 -84.5 45.140625 -84.5 C 41.535156 -84.5 37.929688 -82.40625 34.328125 -78.21875 C 30.734375 -74.039062 27.742188 -68.285156 25.359375 -60.953125 C 22.984375 -53.628906 21.796875 -45.335938 21.796875 -36.078125 C 21.796875 -28.484375 23.59375 -23.109375 27.1875 -19.953125 C 30.789062 -16.804688 35.164062 -15.234375 40.3125 -15.234375 C 44.945312 -15.234375 49.832031 -16.195312 54.96875 -18.125 C 60.113281 -20.0625 64.9375 -22.632812 69.4375 -25.84375 C 73.945312 -29.0625 77.550781 -32.472656 80.25 -36.078125 C 82.820312 -36.585938 84.523438 -36.070312 85.359375 -34.53125 C 86.191406 -32.988281 86.097656 -31.316406 85.078125 -29.515625 Z M 85.078125 -29.515625 " />
                </g>
                <g transform="translate(419.239553, 273.849098)">
                    <path
                        d="M 47.0625 -98.1875 C 54.132812 -98.1875 59.859375 -96.609375 64.234375 -93.453125 C 68.609375 -90.304688 71.820312 -86.128906 73.875 -80.921875 C 75.9375 -75.710938 76.96875 -69.957031 76.96875 -63.65625 C 76.96875 -56.457031 75.742188 -49.0625 73.296875 -41.46875 C 70.859375 -33.882812 67.390625 -26.84375 62.890625 -20.34375 C 58.390625 -13.851562 53.019531 -8.582031 46.78125 -4.53125 C 40.539062 -0.476562 33.628906 1.546875 26.046875 1.546875 C 19.484375 1.546875 14.113281 -0.0234375 9.9375 -3.171875 C 5.757812 -6.328125 2.671875 -10.507812 0.671875 -15.71875 C -1.316406 -20.925781 -2.3125 -26.550781 -2.3125 -32.59375 C -2.3125 -39.925781 -1.125 -47.414062 1.25 -55.0625 C 3.632812 -62.71875 7.046875 -69.789062 11.484375 -76.28125 C 15.921875 -82.78125 21.128906 -88.054688 27.109375 -92.109375 C 33.085938 -96.160156 39.738281 -98.1875 47.0625 -98.1875 Z M 51.3125 -83.53125 C 46.9375 -83.53125 42.976562 -82.113281 39.4375 -79.28125 C 35.90625 -76.457031 32.851562 -72.789062 30.28125 -68.28125 C 27.707031 -63.78125 25.742188 -58.925781 24.390625 -53.71875 C 23.046875 -48.507812 22.375 -43.53125 22.375 -38.78125 C 22.375 -30.289062 23.628906 -24.242188 26.140625 -20.640625 C 28.648438 -17.035156 31.578125 -15.234375 34.921875 -15.234375 C 38.773438 -15.234375 42.34375 -16.84375 45.625 -20.0625 C 48.90625 -23.28125 51.828125 -27.457031 54.390625 -32.59375 C 56.960938 -37.738281 58.957031 -43.203125 60.375 -48.984375 C 61.789062 -54.773438 62.5 -60.179688 62.5 -65.203125 C 62.5 -70.472656 61.628906 -74.84375 59.890625 -78.3125 C 58.160156 -81.789062 55.300781 -83.53125 51.3125 -83.53125 Z M 51.3125 -83.53125 " />
                </g>
                <g transform="translate(506.627767, 273.849098)">
                    <path
                        d="M 33.5625 -86.8125 L 31.640625 -78.125 C 35.617188 -83.78125 39.988281 -88.410156 44.75 -92.015625 C 49.507812 -95.617188 54.65625 -97.421875 60.1875 -97.421875 C 62.882812 -97.421875 65.488281 -96.710938 68 -95.296875 C 70.507812 -93.878906 72.597656 -91.722656 74.265625 -88.828125 C 75.941406 -85.941406 76.648438 -82.179688 76.390625 -77.546875 C 80.503906 -83.335938 84.972656 -88.097656 89.796875 -91.828125 C 94.617188 -95.554688 99.796875 -97.421875 105.328125 -97.421875 C 108.285156 -97.421875 111.335938 -96.613281 114.484375 -95 C 117.640625 -93.394531 120.019531 -90.566406 121.625 -86.515625 C 123.226562 -82.460938 123.195312 -76.644531 121.53125 -69.0625 L 112.078125 -24.6875 C 111.566406 -21.863281 111.820312 -19.835938 112.84375 -18.609375 C 113.875 -17.390625 115.351562 -16.78125 117.28125 -16.78125 C 120.882812 -16.78125 124.550781 -17.773438 128.28125 -19.765625 C 132.007812 -21.765625 135.097656 -23.984375 137.546875 -26.421875 C 139.734375 -25.398438 140.828125 -23.859375 140.828125 -21.796875 C 140.828125 -20.378906 140.242188 -18.960938 139.078125 -17.546875 C 134.578125 -12.410156 129.238281 -7.941406 123.0625 -4.140625 C 116.894531 -0.347656 110.597656 1.546875 104.171875 1.546875 C 100.953125 1.546875 97.894531 0.835938 95 -0.578125 C 92.113281 -1.992188 90.023438 -4.691406 88.734375 -8.671875 C 87.453125 -12.660156 87.582031 -18.382812 89.125 -25.84375 L 97.21875 -64.234375 C 97.988281 -67.328125 98.210938 -70 97.890625 -72.25 C 97.578125 -74.5 95.8125 -75.625 92.59375 -75.625 C 89.375 -75.625 86.414062 -74.816406 83.71875 -73.203125 C 81.019531 -71.597656 78.382812 -69.445312 75.8125 -66.75 L 63.859375 -10.609375 C 62.953125 -6.234375 60.890625 -3.113281 57.671875 -1.25 C 54.460938 0.613281 51.117188 1.546875 47.640625 1.546875 C 44.171875 1.546875 41.148438 0.707031 38.578125 -0.96875 L 52.078125 -64.234375 C 52.722656 -67.328125 52.914062 -70 52.65625 -72.25 C 52.40625 -74.5 50.671875 -75.625 47.453125 -75.625 C 43.984375 -75.625 40.800781 -74.722656 37.90625 -72.921875 C 35.007812 -71.117188 32.273438 -68.675781 29.703125 -65.59375 L 17.9375 -10.609375 C 17.039062 -6.234375 14.984375 -3.113281 11.765625 -1.25 C 8.546875 0.613281 5.203125 1.546875 1.734375 1.546875 C -1.734375 1.546875 -4.753906 0.707031 -7.328125 -0.96875 L 8.484375 -75.046875 C 9.253906 -78.253906 8.613281 -79.859375 6.5625 -79.859375 C 5.789062 -79.859375 4.503906 -79.085938 2.703125 -77.546875 C 1.410156 -78.316406 0.601562 -79.890625 0.28125 -82.265625 C -0.03125 -84.648438 0.773438 -86.613281 2.703125 -88.15625 C 6.046875 -90.726562 9.484375 -92.914062 13.015625 -94.71875 C 16.554688 -96.519531 20.320312 -97.421875 24.3125 -97.421875 C 27.78125 -97.421875 30.414062 -96.582031 32.21875 -94.90625 C 34.019531 -93.238281 34.46875 -90.539062 33.5625 -86.8125 Z M 33.5625 -86.8125 " />
                </g>
                <g transform="translate(644.172577, 273.849098)">
                    <path
                        d="M 68.28125 -79.671875 C 68.28125 -74.265625 67.023438 -69.019531 64.515625 -63.9375 C 62.015625 -58.863281 57.484375 -53.59375 50.921875 -48.125 C 44.367188 -42.664062 34.851562 -36.460938 22.375 -29.515625 C 23.40625 -24.367188 25.5625 -20.703125 28.84375 -18.515625 C 32.125 -16.328125 35.945312 -15.234375 40.3125 -15.234375 C 44.945312 -15.234375 49.832031 -16.195312 54.96875 -18.125 C 60.113281 -20.0625 64.9375 -22.632812 69.4375 -25.84375 C 73.945312 -29.0625 77.550781 -32.472656 80.25 -36.078125 C 82.820312 -36.585938 84.523438 -36.070312 85.359375 -34.53125 C 86.191406 -32.988281 86.097656 -31.316406 85.078125 -29.515625 C 80.703125 -23.085938 75.457031 -17.523438 69.34375 -12.828125 C 63.238281 -8.128906 56.84375 -4.554688 50.15625 -2.109375 C 43.46875 0.328125 36.972656 1.546875 30.671875 1.546875 C 24.628906 1.546875 19.128906 0.328125 14.171875 -2.109375 C 9.222656 -4.554688 5.269531 -8.351562 2.3125 -13.5 C -0.644531 -18.644531 -2.125 -25.140625 -2.125 -32.984375 C -2.125 -38.003906 -1.445312 -43.4375 -0.09375 -49.28125 C 1.25 -55.132812 3.207031 -60.953125 5.78125 -66.734375 C 8.351562 -72.523438 11.597656 -77.800781 15.515625 -82.5625 C 19.441406 -87.320312 23.976562 -91.113281 29.125 -93.9375 C 34.269531 -96.769531 39.992188 -98.1875 46.296875 -98.1875 C 52.210938 -98.1875 56.742188 -97.253906 59.890625 -95.390625 C 63.046875 -93.523438 65.234375 -91.175781 66.453125 -88.34375 C 67.671875 -85.519531 68.28125 -82.628906 68.28125 -79.671875 Z M 47.640625 -83.140625 C 42.890625 -83.140625 38.875 -81.46875 35.59375 -78.125 C 32.3125 -74.78125 29.707031 -70.597656 27.78125 -65.578125 C 25.851562 -60.566406 24.40625 -55.519531 23.4375 -50.4375 C 22.46875 -45.363281 21.921875 -41.15625 21.796875 -37.8125 C 31.179688 -43.726562 38.765625 -49.929688 44.546875 -56.421875 C 50.335938 -62.921875 53.234375 -69.320312 53.234375 -75.625 C 53.234375 -77.8125 52.71875 -79.609375 51.6875 -81.015625 C 50.664062 -82.429688 49.316406 -83.140625 47.640625 -83.140625 Z M 47.640625 -83.140625 " />
                </g>
                <g transform="translate(146.351938, 110.561382)">
                    <path
                        d="M 68.328125 0 C 67.003906 0 65.304688 -1.578125 63.234375 -4.734375 C 61.171875 -7.898438 58.226562 -12.875 54.40625 -19.65625 C 53.9375 -20.507812 52.628906 -22.828125 50.484375 -26.609375 C 48.335938 -30.398438 46.347656 -33.660156 44.515625 -36.390625 C 42.679688 -39.117188 41.0625 -41.265625 39.65625 -42.828125 L 27.84375 -29.484375 L 27.84375 -6.90625 L 38.5 -5.734375 L 38.5 0 L 5.609375 0 L 5.609375 -5.734375 L 15.328125 -6.90625 L 15.328125 -79.671875 L 5.734375 -81.078125 L 5.734375 -86.9375 L 37.5625 -86.9375 L 37.5625 -81.078125 L 27.84375 -79.671875 L 27.84375 -38.734375 L 62.25 -79.671875 L 52.421875 -81.078125 L 52.421875 -86.9375 L 81.3125 -86.9375 L 81.3125 -81.078125 L 72.3125 -79.671875 L 47.03125 -51.359375 C 49.757812 -49.023438 52.664062 -45.632812 55.75 -41.1875 C 58.832031 -36.738281 62.597656 -31.003906 67.046875 -23.984375 C 70.867188 -17.972656 73.65625 -13.703125 75.40625 -11.171875 C 77.164062 -8.640625 78.550781 -7.253906 79.5625 -7.015625 L 85.0625 -5.734375 L 85.0625 0 Z M 68.328125 0 " />
                </g>
                <g transform="translate(231.297566, 110.561382)">
                    <path
                        d="M 34.046875 1.28125 C 24.609375 1.28125 17.410156 -1.796875 12.453125 -7.953125 C 7.503906 -14.117188 5.03125 -22.347656 5.03125 -32.640625 C 5.03125 -39.429688 6.316406 -45.398438 8.890625 -50.546875 C 11.460938 -55.691406 15.066406 -59.664062 19.703125 -62.46875 C 24.347656 -65.28125 29.632812 -66.6875 35.5625 -66.6875 C 42.820312 -66.6875 48.457031 -64.675781 52.46875 -60.65625 C 56.488281 -56.644531 58.613281 -50.894531 58.84375 -43.40625 C 58.84375 -38.644531 58.570312 -35.019531 58.03125 -32.53125 L 17.78125 -32.53125 C 17.9375 -24.800781 19.726562 -18.578125 23.15625 -13.859375 C 26.59375 -9.140625 31.472656 -6.78125 37.796875 -6.78125 C 40.910156 -6.78125 44.164062 -7.34375 47.5625 -8.46875 C 50.957031 -9.601562 53.585938 -10.953125 55.453125 -12.515625 L 57.6875 -7.375 C 55.414062 -5.03125 52.054688 -3 47.609375 -1.28125 C 43.171875 0.425781 38.648438 1.28125 34.046875 1.28125 Z M 45.984375 -38.734375 C 46.210938 -40.367188 46.328125 -42.046875 46.328125 -43.765625 C 46.253906 -48.828125 45.179688 -52.820312 43.109375 -55.75 C 41.046875 -58.675781 37.789062 -60.140625 33.34375 -60.140625 C 28.820312 -60.140625 25.210938 -58.5 22.515625 -55.21875 C 19.828125 -51.945312 18.289062 -46.453125 17.90625 -38.734375 Z M 45.984375 -38.734375 " />
                </g>
                <g transform="translate(294.948289, 110.561382)">
                    <path
                        d="M 12.28125 -55.921875 L 3.859375 -58.03125 L 3.859375 -64.34375 L 20.59375 -66.453125 L 20.9375 -66.453125 L 23.40625 -64.34375 L 23.40625 -59.4375 L 23.28125 -56.625 C 26.09375 -59.125 29.796875 -61.382812 34.390625 -63.40625 C 38.992188 -65.4375 43.40625 -66.453125 47.625 -66.453125 C 52.53125 -66.453125 56.328125 -65.515625 59.015625 -63.640625 C 61.710938 -61.773438 63.609375 -58.910156 64.703125 -55.046875 C 65.796875 -51.179688 66.34375 -45.972656 66.34375 -39.421875 L 66.34375 -6.671875 L 74.53125 -5.84375 L 74.53125 0 L 46.796875 0 L 46.796875 -5.734375 L 54.046875 -6.671875 L 54.046875 -39.546875 C 54.046875 -44.148438 53.734375 -47.753906 53.109375 -50.359375 C 52.492188 -52.972656 51.328125 -54.925781 49.609375 -56.21875 C 47.890625 -57.507812 45.394531 -58.15625 42.125 -58.15625 C 39.3125 -58.15625 36.304688 -57.453125 33.109375 -56.046875 C 29.910156 -54.640625 27.0625 -53 24.5625 -51.125 L 24.5625 -6.78125 L 32.53125 -5.734375 L 32.53125 0 L 4.90625 0 L 4.90625 -5.734375 L 12.28125 -6.78125 Z M 12.28125 -55.921875 " />
                </g>
                <g transform="translate(372.639609, 110.561382)">
                    <path
                        d="M 5.265625 -32.640625 C 5.265625 -39.660156 6.707031 -45.742188 9.59375 -50.890625 C 12.476562 -56.035156 16.28125 -59.953125 21 -62.640625 C 25.71875 -65.335938 30.769531 -66.6875 36.15625 -66.6875 C 45.976562 -66.6875 53.363281 -63.566406 58.3125 -57.328125 C 63.269531 -51.085938 65.75 -42.898438 65.75 -32.765625 C 65.75 -25.660156 64.304688 -19.535156 61.421875 -14.390625 C 58.535156 -9.242188 54.734375 -5.34375 50.015625 -2.6875 C 45.296875 -0.0390625 40.242188 1.28125 34.859375 1.28125 C 25.035156 1.28125 17.644531 -1.835938 12.6875 -8.078125 C 7.738281 -14.316406 5.265625 -22.503906 5.265625 -32.640625 Z M 35.5625 -5.375 C 40.945312 -5.375 45.082031 -7.597656 47.96875 -12.046875 C 50.851562 -16.492188 52.296875 -23.085938 52.296875 -31.828125 C 52.296875 -40.484375 50.96875 -47.34375 48.3125 -52.40625 C 45.664062 -57.476562 41.414062 -60.015625 35.5625 -60.015625 C 30.1875 -60.015625 26.035156 -57.789062 23.109375 -53.34375 C 20.179688 -48.90625 18.71875 -42.316406 18.71875 -33.578125 C 18.71875 -24.921875 20.082031 -18.054688 22.8125 -12.984375 C 25.539062 -7.910156 29.789062 -5.375 35.5625 -5.375 Z M 35.5625 -5.375 " />
                </g>
                <g transform="translate(443.778651, 110.561382)">
                    <path
                        d="M 16.140625 -9.359375 C 16.921875 -8.191406 18.578125 -7.140625 21.109375 -6.203125 C 23.648438 -5.265625 26.328125 -4.796875 29.140625 -4.796875 C 33.578125 -4.796875 36.847656 -5.648438 38.953125 -7.359375 C 41.066406 -9.078125 42.125 -11.460938 42.125 -14.515625 C 42.125 -16.617188 41.457031 -18.445312 40.125 -20 C 38.800781 -21.5625 36.945312 -22.945312 34.5625 -24.15625 C 32.1875 -25.363281 28.78125 -26.828125 24.34375 -28.546875 C 18.332031 -30.804688 13.941406 -33.515625 11.171875 -36.671875 C 8.398438 -39.835938 7.015625 -43.992188 7.015625 -49.140625 C 7.015625 -52.566406 8.046875 -55.566406 10.109375 -58.140625 C 12.179688 -60.722656 15.03125 -62.734375 18.65625 -64.171875 C 22.289062 -65.617188 26.328125 -66.34375 30.765625 -66.34375 C 34.359375 -66.34375 37.5 -66.066406 40.1875 -65.515625 C 42.875 -64.972656 45.035156 -64.425781 46.671875 -63.875 C 48.316406 -63.332031 49.410156 -62.984375 49.953125 -62.828125 L 49.953125 -48.328125 L 42.828125 -48.328125 L 40.484375 -56.984375 C 40.015625 -57.921875 38.765625 -58.71875 36.734375 -59.375 C 34.710938 -60.039062 32.453125 -60.375 29.953125 -60.375 C 26.441406 -60.375 23.613281 -59.59375 21.46875 -58.03125 C 19.320312 -56.46875 18.25 -54.363281 18.25 -51.71875 C 18.25 -49.375 18.8125 -47.441406 19.9375 -45.921875 C 21.070312 -44.398438 22.5 -43.171875 24.21875 -42.234375 C 25.9375 -41.296875 28.273438 -40.207031 31.234375 -38.96875 L 33.578125 -38.03125 C 37.941406 -36.3125 41.488281 -34.671875 44.21875 -33.109375 C 46.957031 -31.546875 49.238281 -29.5 51.0625 -26.96875 C 52.894531 -24.4375 53.8125 -21.335938 53.8125 -17.671875 C 53.8125 -11.898438 51.566406 -7.296875 47.078125 -3.859375 C 42.597656 -0.429688 36.460938 1.28125 28.671875 1.28125 C 24.847656 1.28125 20.847656 0.753906 16.671875 -0.296875 C 12.492188 -1.347656 9.082031 -2.421875 6.4375 -3.515625 L 6.4375 -18.484375 L 14.046875 -18.484375 Z M 16.140625 -9.359375 " />
                </g>
                <g transform="translate(502.866169, 110.561382)">
                    <path
                        d="M 11.578125 -87.28125 L 1.75 -88.5625 L 1.75 -93.59375 L 20.828125 -95.828125 L 21.0625 -95.828125 L 23.640625 -94.0625 L 23.640625 -66.921875 L 23.171875 -56.984375 C 25.660156 -59.242188 29.085938 -61.382812 33.453125 -63.40625 C 37.828125 -65.4375 42.238281 -66.453125 46.6875 -66.453125 C 51.59375 -66.453125 55.410156 -65.515625 58.140625 -63.640625 C 60.878906 -61.773438 62.789062 -58.910156 63.875 -55.046875 C 64.96875 -51.179688 65.515625 -45.972656 65.515625 -39.421875 L 65.515625 -6.78125 L 73.703125 -5.734375 L 73.703125 0 L 45.75 0 L 45.75 -5.734375 L 53.359375 -6.78125 L 53.359375 -39.546875 C 53.359375 -44.148438 53.046875 -47.753906 52.421875 -50.359375 C 51.796875 -52.972656 50.625 -54.925781 48.90625 -56.21875 C 47.1875 -57.507812 44.613281 -58.15625 41.1875 -58.15625 C 38.375 -58.15625 35.367188 -57.453125 32.171875 -56.046875 C 28.972656 -54.640625 26.164062 -53 23.75 -51.125 L 23.75 -6.78125 L 31.828125 -5.734375 L 31.828125 0 L 4.5625 0 L 4.5625 -5.734375 L 11.578125 -6.671875 Z M 11.578125 -87.28125 " />
                </g>
                <g transform="translate(579.972463, 110.561382)">
                    <path
                        d="M 5.265625 -17.546875 C 5.265625 -24.878906 8.929688 -30.28125 16.265625 -33.75 C 23.597656 -37.226562 32.878906 -39.082031 44.109375 -39.3125 L 44.109375 -42.59375 C 44.109375 -46.257812 43.71875 -49.144531 42.9375 -51.25 C 42.15625 -53.351562 40.804688 -54.890625 38.890625 -55.859375 C 36.984375 -56.835938 34.273438 -57.328125 30.765625 -57.328125 C 26.785156 -57.328125 23.21875 -56.757812 20.0625 -55.625 C 16.90625 -54.5 13.765625 -53.117188 10.640625 -51.484375 L 7.71875 -57.5625 C 8.738281 -58.414062 10.613281 -59.546875 13.34375 -60.953125 C 16.070312 -62.359375 19.226562 -63.609375 22.8125 -64.703125 C 26.40625 -65.796875 29.992188 -66.34375 33.578125 -66.34375 C 39.117188 -66.34375 43.503906 -65.582031 46.734375 -64.0625 C 49.972656 -62.539062 52.296875 -60.101562 53.703125 -56.75 C 55.109375 -53.394531 55.8125 -48.910156 55.8125 -43.296875 L 55.8125 -5.734375 L 62.71875 -5.734375 L 62.71875 -0.578125 C 61.15625 -0.191406 59.179688 0.191406 56.796875 0.578125 C 54.421875 0.972656 52.335938 1.171875 50.546875 1.171875 C 48.359375 1.171875 46.875 0.835938 46.09375 0.171875 C 45.3125 -0.484375 44.921875 -1.945312 44.921875 -4.21875 L 44.921875 -8.078125 C 42.585938 -5.734375 39.722656 -3.585938 36.328125 -1.640625 C 32.929688 0.304688 29.085938 1.28125 24.796875 1.28125 C 19.179688 1.28125 14.519531 -0.332031 10.8125 -3.5625 C 7.113281 -6.800781 5.265625 -11.460938 5.265625 -17.546875 Z M 29.828125 -6.671875 C 31.859375 -6.671875 34.195312 -7.289062 36.84375 -8.53125 C 39.5 -9.78125 41.921875 -11.265625 44.109375 -12.984375 L 44.109375 -33.109375 C 35.609375 -33.109375 29.191406 -31.800781 24.859375 -29.1875 C 20.535156 -26.570312 18.375 -23.160156 18.375 -18.953125 C 18.375 -14.742188 19.40625 -11.644531 21.46875 -9.65625 C 23.53125 -7.664062 26.316406 -6.671875 29.828125 -6.671875 Z M 29.828125 -6.671875 " />
                </g>
                <g transform="translate(206.740222, 403.269328)">
                    <path
                        d="M 43.75 1.265625 C 35.257812 1.265625 28.023438 -0.5625 22.046875 -4.21875 C 16.066406 -7.882812 11.53125 -13.035156 8.4375 -19.671875 C 5.351562 -26.304688 3.8125 -34.101562 3.8125 -43.0625 C 3.8125 -51.695312 5.625 -59.332031 9.25 -65.96875 C 12.882812 -72.613281 17.863281 -77.765625 24.1875 -81.421875 C 30.519531 -85.085938 37.617188 -86.921875 45.484375 -86.921875 C 51.429688 -86.921875 58.570312 -86 66.90625 -84.15625 L 70.71875 -83.453125 L 69.5625 -62.625 L 61.8125 -62.625 L 58.921875 -77.328125 C 57.835938 -78.242188 55.960938 -79.03125 53.296875 -79.6875 C 50.640625 -80.34375 47.378906 -80.671875 43.515625 -80.671875 C 38.578125 -80.671875 34.175781 -79.265625 30.3125 -76.453125 C 26.457031 -73.640625 23.429688 -69.492188 21.234375 -64.015625 C 19.035156 -58.535156 17.9375 -51.972656 17.9375 -44.328125 C 17.9375 -37.078125 18.898438 -30.476562 20.828125 -24.53125 C 22.765625 -18.59375 25.695312 -13.867188 29.625 -10.359375 C 33.5625 -6.847656 38.425781 -5.09375 44.21875 -5.09375 C 48.300781 -5.09375 51.441406 -5.4375 53.640625 -6.125 C 55.847656 -6.820312 57.722656 -7.828125 59.265625 -9.140625 L 64.125 -20.484375 L 71.421875 -19.5625 L 68.640625 -3.125 C 67.015625 -3.050781 64.625 -2.507812 61.46875 -1.5 C 58.6875 -0.65625 56.003906 0.015625 53.421875 0.515625 C 50.835938 1.015625 47.613281 1.265625 43.75 1.265625 Z M 43.75 1.265625 " />
                </g>
                <g transform="translate(282.324551, 403.269328)">
                    <path
                        d="M 33.6875 1.265625 C 24.34375 1.265625 17.222656 -1.78125 12.328125 -7.875 C 7.429688 -13.96875 4.984375 -22.109375 4.984375 -32.296875 C 4.984375 -39.003906 6.253906 -44.90625 8.796875 -50 C 11.335938 -55.09375 14.90625 -59.03125 19.5 -61.8125 C 24.09375 -64.59375 29.320312 -65.984375 35.1875 -65.984375 C 42.363281 -65.984375 47.9375 -63.992188 51.90625 -60.015625 C 55.882812 -56.046875 57.988281 -50.351562 58.21875 -42.9375 C 58.21875 -38.226562 57.945312 -34.640625 57.40625 -32.171875 L 17.59375 -32.171875 C 17.75 -24.535156 19.523438 -18.382812 22.921875 -13.71875 C 26.316406 -9.050781 31.140625 -6.71875 37.390625 -6.71875 C 40.472656 -6.71875 43.691406 -7.273438 47.046875 -8.390625 C 50.410156 -9.503906 53.015625 -10.835938 54.859375 -12.390625 L 57.0625 -7.296875 C 54.820312 -4.972656 51.503906 -2.960938 47.109375 -1.265625 C 42.710938 0.421875 38.238281 1.265625 33.6875 1.265625 Z M 45.484375 -38.3125 C 45.722656 -39.9375 45.84375 -41.597656 45.84375 -43.296875 C 45.757812 -48.304688 44.695312 -52.257812 42.65625 -55.15625 C 40.613281 -58.050781 37.390625 -59.5 32.984375 -59.5 C 28.515625 -59.5 24.945312 -57.875 22.28125 -54.625 C 19.613281 -51.382812 18.085938 -45.945312 17.703125 -38.3125 Z M 45.484375 -38.3125 " />
                </g>
                <g transform="translate(345.292207, 403.269328)">
                    <path
                        d="M 12.15625 -55.328125 L 3.8125 -57.40625 L 3.8125 -63.65625 L 20.375 -65.75 L 20.71875 -65.75 L 23.15625 -63.65625 L 23.15625 -58.796875 L 23.03125 -56.015625 C 25.8125 -58.492188 29.476562 -60.734375 34.03125 -62.734375 C 38.582031 -64.742188 42.941406 -65.75 47.109375 -65.75 C 51.972656 -65.75 55.734375 -64.820312 58.390625 -62.96875 C 61.054688 -61.113281 62.925781 -58.273438 64 -54.453125 C 65.082031 -50.640625 65.625 -45.488281 65.625 -39 L 65.625 -6.59375 L 73.734375 -5.78125 L 73.734375 0 L 46.296875 0 L 46.296875 -5.671875 L 53.46875 -6.59375 L 53.46875 -39.125 C 53.46875 -43.675781 53.160156 -47.242188 52.546875 -49.828125 C 51.929688 -52.410156 50.773438 -54.335938 49.078125 -55.609375 C 47.378906 -56.890625 44.910156 -57.53125 41.671875 -57.53125 C 38.890625 -57.53125 35.914062 -56.832031 32.75 -55.4375 C 29.59375 -54.050781 26.78125 -52.429688 24.3125 -50.578125 L 24.3125 -6.71875 L 32.171875 -5.671875 L 32.171875 0 L 4.859375 0 L 4.859375 -5.671875 L 12.15625 -6.71875 Z M 12.15625 -55.328125 " />
                </g>
                <g transform="translate(422.14979, 403.269328)">
                    <path
                        d="M 25 1.15625 C 20.601562 1.15625 17.320312 0.15625 15.15625 -1.84375 C 13 -3.851562 11.921875 -7.289062 11.921875 -12.15625 L 11.921875 -56.609375 L 3.59375 -56.609375 L 3.59375 -61.8125 C 3.976562 -61.882812 5.054688 -62.148438 6.828125 -62.609375 C 8.597656 -63.078125 9.796875 -63.503906 10.421875 -63.890625 C 11.648438 -64.585938 12.613281 -65.976562 13.3125 -68.0625 C 13.925781 -69.53125 14.65625 -71.882812 15.5 -75.125 C 16.351562 -78.363281 16.859375 -80.289062 17.015625 -80.90625 L 23.84375 -80.90625 L 24.078125 -64.234375 L 43.40625 -64.234375 L 43.40625 -56.609375 L 24.078125 -56.609375 L 24.078125 -21.0625 C 24.078125 -16.664062 24.210938 -13.578125 24.484375 -11.796875 C 24.753906 -10.023438 25.332031 -8.867188 26.21875 -8.328125 C 27.101562 -7.796875 28.628906 -7.53125 30.796875 -7.53125 C 32.878906 -7.53125 35.171875 -7.796875 37.671875 -8.328125 C 40.179688 -8.867188 42.128906 -9.445312 43.515625 -10.0625 L 45.265625 -4.859375 C 43.410156 -3.472656 40.414062 -2.125 36.28125 -0.8125 C 32.15625 0.5 28.394531 1.15625 25 1.15625 Z M 25 1.15625 " />
                </g>
                <g transform="translate(469.259786, 403.269328)">
                    <path
                        d="M 33.6875 1.265625 C 24.34375 1.265625 17.222656 -1.78125 12.328125 -7.875 C 7.429688 -13.96875 4.984375 -22.109375 4.984375 -32.296875 C 4.984375 -39.003906 6.253906 -44.90625 8.796875 -50 C 11.335938 -55.09375 14.90625 -59.03125 19.5 -61.8125 C 24.09375 -64.59375 29.320312 -65.984375 35.1875 -65.984375 C 42.363281 -65.984375 47.9375 -63.992188 51.90625 -60.015625 C 55.882812 -56.046875 57.988281 -50.351562 58.21875 -42.9375 C 58.21875 -38.226562 57.945312 -34.640625 57.40625 -32.171875 L 17.59375 -32.171875 C 17.75 -24.535156 19.523438 -18.382812 22.921875 -13.71875 C 26.316406 -9.050781 31.140625 -6.71875 37.390625 -6.71875 C 40.472656 -6.71875 43.691406 -7.273438 47.046875 -8.390625 C 50.410156 -9.503906 53.015625 -10.835938 54.859375 -12.390625 L 57.0625 -7.296875 C 54.820312 -4.972656 51.503906 -2.960938 47.109375 -1.265625 C 42.710938 0.421875 38.238281 1.265625 33.6875 1.265625 Z M 45.484375 -38.3125 C 45.722656 -39.9375 45.84375 -41.597656 45.84375 -43.296875 C 45.757812 -48.304688 44.695312 -52.257812 42.65625 -55.15625 C 40.613281 -58.050781 37.390625 -59.5 32.984375 -59.5 C 28.515625 -59.5 24.945312 -57.875 22.28125 -54.625 C 19.613281 -51.382812 18.085938 -45.945312 17.703125 -38.3125 Z M 45.484375 -38.3125 " />
                </g>
                <g transform="translate(532.227441, 403.269328)">
                    <path
                        d="M 5.4375 -5.671875 L 14.125 -6.359375 L 14.125 -55.328125 L 5.78125 -57.40625 L 5.78125 -63.65625 L 21.765625 -65.75 L 22 -65.75 L 24.53125 -63.65625 L 24.53125 -61.578125 L 24.1875 -52.546875 L 24.53125 -52.546875 C 25.3125 -53.859375 26.703125 -55.554688 28.703125 -57.640625 C 30.710938 -59.722656 33.296875 -61.632812 36.453125 -63.375 C 39.617188 -65.113281 43.054688 -65.984375 46.765625 -65.984375 C 48.304688 -65.984375 49.578125 -65.789062 50.578125 -65.40625 L 50.578125 -52.4375 C 50.035156 -52.820312 49.164062 -53.1875 47.96875 -53.53125 C 46.78125 -53.882812 45.453125 -54.0625 43.984375 -54.0625 C 37.578125 -54.0625 31.632812 -52.09375 26.15625 -48.15625 L 26.15625 -6.484375 L 40.859375 -5.5625 L 40.859375 0 L 5.4375 0 Z M 5.4375 -5.671875 " />
                </g>
            </g>
        </mask>
    </defs>

    <!-- Black background with a mask applied -->
    <rect width="100%" height="100%" fill="black" mask="url(#cutout-mask)" />
</svg>
