<svg xmlns="http://www.w3.org/2000/svg" xmlns:xlink="http://www.w3.org/1999/xlink" width="1089" zoomAndPan="magnify" viewBox="0 0 816.75 147.000002" height="196" preserveAspectRatio="xMidYMid meet" version="1.0">
    <defs>
        <linearGradient id="gold-gradient" x1="0" y1="0" x2="1" y2="1" gradientUnits="objectBoundingBox" gradientTransform="scale(2) translate(-0.25, -0.25)">
            <stop offset="0%" stop-color="#fed54d" />
            <stop offset="25%" stop-color="#e2bb4c" />
            <stop offset="50%" stop-color="#f9e485" />
            <stop offset="75%" stop-color="#e2bb4c" />
            <stop offset="100%" stop-color="#fed54d" />
        </linearGradient>

        <!-- Mask to combine paths as a single unit -->
        <mask id="combined-mask">
            <g fill="white">
                <g transform="translate(290.605323, 93.557904)">
                        <path
                            d="M 25.25 -37.078125 C 25.632812 -39.035156 26.523438 -40.40625 27.921875 -41.1875 C 29.328125 -41.96875 30.785156 -42.359375 32.296875 -42.359375 C 33.910156 -42.359375 35.222656 -41.992188 36.234375 -41.265625 C 35.453125 -37.578125 34.765625 -34 34.171875 -30.53125 C 33.585938 -27.0625 33.296875 -23.765625 33.296875 -20.640625 C 33.296875 -18.398438 33.488281 -16.21875 33.875 -14.09375 C 34.269531 -11.96875 34.914062 -9.953125 35.8125 -8.046875 C 37.9375 -9.722656 39.796875 -11.75 41.390625 -14.125 C 42.984375 -16.507812 44.210938 -19.054688 45.078125 -21.765625 C 45.953125 -24.472656 46.390625 -27.144531 46.390625 -29.78125 C 46.390625 -32.570312 45.96875 -35.097656 45.125 -37.359375 C 44.28125 -39.628906 42.96875 -41.15625 41.1875 -41.9375 C 41.289062 -44.113281 41.898438 -45.75 43.015625 -46.84375 C 44.140625 -47.9375 45.398438 -48.453125 46.796875 -48.390625 C 48.421875 -48.335938 49.957031 -47.539062 51.40625 -46 C 52.863281 -44.46875 53.59375 -42.160156 53.59375 -39.078125 C 53.59375 -35.222656 53.101562 -31.394531 52.125 -27.59375 C 51.144531 -23.789062 49.832031 -20.195312 48.1875 -16.8125 C 46.539062 -13.4375 44.707031 -10.429688 42.6875 -7.796875 C 40.675781 -5.171875 38.632812 -3.101562 36.5625 -1.59375 C 34.5 -0.0820312 32.570312 0.671875 30.78125 0.671875 C 29.320312 0.671875 28.144531 -0.09375 27.25 -1.625 C 26.363281 -3.164062 25.695312 -5.179688 25.25 -7.671875 C 24.800781 -10.160156 24.492188 -12.773438 24.328125 -15.515625 C 22.085938 -10.484375 19.679688 -6.523438 17.109375 -3.640625 C 14.535156 -0.765625 12.128906 0.671875 9.890625 0.671875 C 7.992188 0.671875 6.472656 -0.304688 5.328125 -2.265625 C 4.179688 -4.222656 3.34375 -6.722656 2.8125 -9.765625 C 2.28125 -12.816406 2.015625 -15.960938 2.015625 -19.203125 C 2.015625 -21.941406 2.164062 -24.566406 2.46875 -27.078125 C 2.78125 -29.597656 3.21875 -31.726562 3.78125 -33.46875 C 3.882812 -33.914062 3.820312 -34.234375 3.59375 -34.421875 C 3.375 -34.617188 3.128906 -34.71875 2.859375 -34.71875 C 2.296875 -34.71875 1.765625 -34.410156 1.265625 -33.796875 C 0.703125 -34.359375 0.347656 -34.847656 0.203125 -35.265625 C 0.0664062 -35.691406 0 -36.070312 0 -36.40625 C 0 -37.070312 0.554688 -37.863281 1.671875 -38.78125 C 2.796875 -39.707031 4.179688 -40.535156 5.828125 -41.265625 C 7.472656 -41.992188 9.050781 -42.359375 10.5625 -42.359375 C 12.070312 -42.359375 13.203125 -41.992188 13.953125 -41.265625 C 14.710938 -40.535156 14.925781 -39.363281 14.59375 -37.75 C 14.03125 -35.007812 13.550781 -32.179688 13.15625 -29.265625 C 12.769531 -26.359375 12.578125 -23.507812 12.578125 -20.71875 C 12.578125 -18.257812 12.757812 -15.9375 13.125 -13.75 C 13.488281 -11.570312 14.09375 -9.671875 14.9375 -8.046875 C 17.5 -10.566406 19.507812 -14.160156 20.96875 -18.828125 C 22.425781 -23.492188 23.851562 -29.578125 25.25 -37.078125 Z M 25.25 -37.078125 " />
                </g>
                <g transform="translate(346.716027, 93.557904)">
                        <path
                            d="M 29.6875 -34.640625 C 29.6875 -32.296875 29.140625 -30.015625 28.046875 -27.796875 C 26.960938 -25.585938 24.992188 -23.296875 22.140625 -20.921875 C 19.285156 -18.546875 15.148438 -15.847656 9.734375 -12.828125 C 10.179688 -10.597656 11.113281 -9.003906 12.53125 -8.046875 C 13.957031 -7.097656 15.625 -6.625 17.53125 -6.625 C 19.539062 -6.625 21.664062 -7.039062 23.90625 -7.875 C 26.144531 -8.71875 28.238281 -9.835938 30.1875 -11.234375 C 32.144531 -12.640625 33.710938 -14.125 34.890625 -15.6875 C 36.003906 -15.90625 36.742188 -15.675781 37.109375 -15 C 37.472656 -14.332031 37.429688 -13.609375 36.984375 -12.828125 C 35.085938 -10.035156 32.8125 -7.617188 30.15625 -5.578125 C 27.5 -3.535156 24.71875 -1.984375 21.8125 -0.921875 C 18.90625 0.140625 16.082031 0.671875 13.34375 0.671875 C 10.707031 0.671875 8.3125 0.140625 6.15625 -0.921875 C 4.007812 -1.984375 2.289062 -3.628906 1 -5.859375 C -0.28125 -8.097656 -0.921875 -10.925781 -0.921875 -14.34375 C -0.921875 -16.519531 -0.625 -18.878906 -0.03125 -21.421875 C 0.550781 -23.972656 1.398438 -26.503906 2.515625 -29.015625 C 3.628906 -31.535156 5.039062 -33.828125 6.75 -35.890625 C 8.457031 -37.960938 10.425781 -39.613281 12.65625 -40.84375 C 14.894531 -42.070312 17.382812 -42.6875 20.125 -42.6875 C 22.695312 -42.6875 24.664062 -42.28125 26.03125 -41.46875 C 27.40625 -40.664062 28.359375 -39.644531 28.890625 -38.40625 C 29.421875 -37.175781 29.6875 -35.921875 29.6875 -34.640625 Z M 20.71875 -36.15625 C 18.644531 -36.15625 16.894531 -35.425781 15.46875 -33.96875 C 14.050781 -32.507812 12.921875 -30.691406 12.078125 -28.515625 C 11.234375 -26.335938 10.601562 -24.144531 10.1875 -21.9375 C 9.769531 -19.726562 9.535156 -17.894531 9.484375 -16.4375 C 13.554688 -19.007812 16.851562 -21.707031 19.375 -24.53125 C 21.894531 -27.351562 23.15625 -30.132812 23.15625 -32.875 C 23.15625 -33.832031 22.929688 -34.617188 22.484375 -35.234375 C 22.035156 -35.847656 21.445312 -36.15625 20.71875 -36.15625 Z M 20.71875 -36.15625 " />
                </g>
                <g transform="translate(381.523112, 93.557904)">
                        <path
                            d="M 29.359375 -13 C 28.410156 -10.476562 26.773438 -8.179688 24.453125 -6.109375 C 22.128906 -4.046875 19.554688 -2.398438 16.734375 -1.171875 C 13.910156 0.0546875 11.210938 0.671875 8.640625 0.671875 C 5.734375 0.671875 3.328125 -0.289062 1.421875 -2.21875 C -0.472656 -4.144531 -1.144531 -7.320312 -0.59375 -11.75 C 0.695312 -21.863281 2.234375 -30.515625 4.015625 -37.703125 C 5.804688 -44.890625 7.988281 -50.382812 10.5625 -54.1875 C 13.132812 -57.988281 16.238281 -59.890625 19.875 -59.890625 C 21.832031 -59.890625 23.441406 -59.300781 24.703125 -58.125 C 25.960938 -56.945312 26.59375 -55.269531 26.59375 -53.09375 C 26.59375 -49.851562 25.234375 -45.03125 22.515625 -38.625 C 19.804688 -32.21875 15.738281 -24.878906 10.3125 -16.609375 C 10.257812 -16.109375 10.191406 -15.59375 10.109375 -15.0625 C 10.023438 -14.53125 9.953125 -14.007812 9.890625 -13.5 C 9.617188 -11.320312 9.941406 -9.769531 10.859375 -8.84375 C 11.785156 -7.925781 12.972656 -7.46875 14.421875 -7.46875 C 15.992188 -7.46875 17.671875 -7.867188 19.453125 -8.671875 C 21.242188 -9.484375 22.878906 -10.5625 24.359375 -11.90625 C 25.847656 -13.25 26.84375 -14.675781 27.34375 -16.1875 C 28.125 -16.300781 28.722656 -15.992188 29.140625 -15.265625 C 29.566406 -14.535156 29.640625 -13.78125 29.359375 -13 Z M 20.46875 -54.34375 C 19.570312 -54.34375 18.59375 -53.039062 17.53125 -50.4375 C 16.46875 -47.84375 15.414062 -44.28125 14.375 -39.75 C 13.34375 -35.226562 12.351562 -30.003906 11.40625 -24.078125 C 13.863281 -28.660156 15.859375 -32.921875 17.390625 -36.859375 C 18.929688 -40.804688 20.066406 -44.160156 20.796875 -46.921875 C 21.523438 -49.691406 21.890625 -51.550781 21.890625 -52.5 C 21.890625 -53.226562 21.765625 -53.71875 21.515625 -53.96875 C 21.265625 -54.21875 20.914062 -54.34375 20.46875 -54.34375 Z M 20.46875 -54.34375 " />
                </g>
                <g transform="translate(408.613935, 93.557904)">
                        <path
                            d="M 36.984375 -12.828125 C 35.085938 -10.035156 32.8125 -7.617188 30.15625 -5.578125 C 27.5 -3.535156 24.71875 -1.984375 21.8125 -0.921875 C 18.90625 0.140625 16.082031 0.671875 13.34375 0.671875 C 10.707031 0.671875 8.3125 0.140625 6.15625 -0.921875 C 4.007812 -1.984375 2.289062 -3.628906 1 -5.859375 C -0.28125 -8.097656 -0.921875 -10.925781 -0.921875 -14.34375 C -0.921875 -17.582031 -0.40625 -20.863281 0.625 -24.1875 C 1.664062 -27.519531 3.132812 -30.582031 5.03125 -33.375 C 6.9375 -36.175781 9.203125 -38.425781 11.828125 -40.125 C 14.453125 -41.832031 17.332031 -42.6875 20.46875 -42.6875 C 27.226562 -42.6875 30.609375 -39.976562 30.609375 -34.5625 C 30.609375 -32.207031 30.019531 -30.46875 28.84375 -29.34375 C 27.675781 -28.226562 26.3125 -27.671875 24.75 -27.671875 C 24.1875 -27.671875 23.597656 -27.769531 22.984375 -27.96875 C 22.367188 -28.164062 21.835938 -28.460938 21.390625 -28.859375 C 21.835938 -29.859375 22.171875 -30.875 22.390625 -31.90625 C 22.617188 -32.945312 22.734375 -33.75 22.734375 -34.3125 C 22.734375 -35.925781 21.695312 -36.734375 19.625 -36.734375 C 18.0625 -36.734375 16.492188 -35.820312 14.921875 -34 C 13.359375 -32.1875 12.0625 -29.6875 11.03125 -26.5 C 10 -23.3125 9.484375 -19.707031 9.484375 -15.6875 C 9.484375 -12.382812 10.265625 -10.046875 11.828125 -8.671875 C 13.390625 -7.304688 15.289062 -6.625 17.53125 -6.625 C 19.539062 -6.625 21.664062 -7.039062 23.90625 -7.875 C 26.144531 -8.71875 28.238281 -9.835938 30.1875 -11.234375 C 32.144531 -12.640625 33.710938 -14.125 34.890625 -15.6875 C 36.003906 -15.90625 36.742188 -15.675781 37.109375 -15 C 37.472656 -14.332031 37.429688 -13.609375 36.984375 -12.828125 Z M 36.984375 -12.828125 " />
                </g>
                <g transform="translate(443.42102, 93.557904)">
                        <path
                            d="M 20.46875 -42.6875 C 23.539062 -42.6875 26.023438 -42 27.921875 -40.625 C 29.828125 -39.257812 31.226562 -37.441406 32.125 -35.171875 C 33.019531 -32.910156 33.46875 -30.410156 33.46875 -27.671875 C 33.46875 -24.546875 32.9375 -21.332031 31.875 -18.03125 C 30.8125 -14.726562 29.300781 -11.664062 27.34375 -8.84375 C 25.382812 -6.019531 23.046875 -3.726562 20.328125 -1.96875 C 17.617188 -0.207031 14.617188 0.671875 11.328125 0.671875 C 8.472656 0.671875 6.132812 -0.0078125 4.3125 -1.375 C 2.5 -2.75 1.160156 -4.566406 0.296875 -6.828125 C -0.566406 -9.097656 -1 -11.546875 -1 -14.171875 C -1 -17.359375 -0.484375 -20.613281 0.546875 -23.9375 C 1.578125 -27.269531 3.054688 -30.347656 4.984375 -33.171875 C 6.921875 -35.992188 9.1875 -38.285156 11.78125 -40.046875 C 14.382812 -41.804688 17.28125 -42.6875 20.46875 -42.6875 Z M 22.3125 -36.3125 C 20.40625 -36.3125 18.679688 -35.695312 17.140625 -34.46875 C 15.609375 -33.238281 14.28125 -31.644531 13.15625 -29.6875 C 12.039062 -27.726562 11.191406 -25.617188 10.609375 -23.359375 C 10.023438 -21.097656 9.734375 -18.929688 9.734375 -16.859375 C 9.734375 -13.171875 10.273438 -10.539062 11.359375 -8.96875 C 12.453125 -7.40625 13.726562 -6.625 15.1875 -6.625 C 16.863281 -6.625 18.410156 -7.320312 19.828125 -8.71875 C 21.253906 -10.113281 22.523438 -11.929688 23.640625 -14.171875 C 24.765625 -16.410156 25.632812 -18.785156 26.25 -21.296875 C 26.863281 -23.816406 27.171875 -26.164062 27.171875 -28.34375 C 27.171875 -30.632812 26.789062 -32.535156 26.03125 -34.046875 C 25.28125 -35.554688 24.039062 -36.3125 22.3125 -36.3125 Z M 22.3125 -36.3125 " />
                </g>
                <g transform="translate(481.415265, 93.557904)">
                        <path
                            d="M 14.59375 -37.75 L 13.75 -33.96875 C 15.488281 -36.425781 17.390625 -38.4375 19.453125 -40 C 21.523438 -41.570312 23.765625 -42.359375 26.171875 -42.359375 C 27.347656 -42.359375 28.476562 -42.050781 29.5625 -41.4375 C 30.65625 -40.820312 31.5625 -39.882812 32.28125 -38.625 C 33.007812 -37.363281 33.320312 -35.726562 33.21875 -33.71875 C 35.007812 -36.226562 36.953125 -38.296875 39.046875 -39.921875 C 41.140625 -41.546875 43.390625 -42.359375 45.796875 -42.359375 C 47.078125 -42.359375 48.398438 -42.007812 49.765625 -41.3125 C 51.140625 -40.613281 52.175781 -39.378906 52.875 -37.609375 C 53.582031 -35.847656 53.570312 -33.320312 52.84375 -30.03125 L 48.734375 -10.734375 C 48.503906 -9.503906 48.613281 -8.625 49.0625 -8.09375 C 49.507812 -7.5625 50.15625 -7.296875 51 -7.296875 C 52.5625 -7.296875 54.148438 -7.726562 55.765625 -8.59375 C 57.390625 -9.457031 58.734375 -10.421875 59.796875 -11.484375 C 60.753906 -11.035156 61.234375 -10.367188 61.234375 -9.484375 C 61.234375 -8.867188 60.976562 -8.25 60.46875 -7.625 C 58.507812 -5.394531 56.1875 -3.453125 53.5 -1.796875 C 50.820312 -0.148438 48.085938 0.671875 45.296875 0.671875 C 43.898438 0.671875 42.570312 0.363281 41.3125 -0.25 C 40.050781 -0.863281 39.140625 -2.035156 38.578125 -3.765625 C 38.023438 -5.503906 38.082031 -7.992188 38.75 -11.234375 L 42.265625 -27.9375 C 42.609375 -29.269531 42.707031 -30.425781 42.5625 -31.40625 C 42.425781 -32.382812 41.660156 -32.875 40.265625 -32.875 C 38.859375 -32.875 37.566406 -32.523438 36.390625 -31.828125 C 35.222656 -31.128906 34.082031 -30.191406 32.96875 -29.015625 L 27.765625 -4.609375 C 27.367188 -2.710938 26.472656 -1.359375 25.078125 -0.546875 C 23.679688 0.265625 22.226562 0.671875 20.71875 0.671875 C 19.207031 0.671875 17.894531 0.304688 16.78125 -0.421875 L 22.640625 -27.9375 C 22.921875 -29.269531 23.003906 -30.425781 22.890625 -31.40625 C 22.785156 -32.382812 22.035156 -32.875 20.640625 -32.875 C 19.128906 -32.875 17.742188 -32.484375 16.484375 -31.703125 C 15.222656 -30.921875 14.035156 -29.859375 12.921875 -28.515625 L 7.796875 -4.609375 C 7.410156 -2.710938 6.515625 -1.359375 5.109375 -0.546875 C 3.710938 0.265625 2.257812 0.671875 0.75 0.671875 C -0.757812 0.671875 -2.070312 0.304688 -3.1875 -0.421875 L 3.6875 -32.625 C 4.019531 -34.019531 3.742188 -34.71875 2.859375 -34.71875 C 2.515625 -34.71875 1.953125 -34.382812 1.171875 -33.71875 C 0.609375 -34.050781 0.257812 -34.734375 0.125 -35.765625 C -0.0078125 -36.804688 0.335938 -37.660156 1.171875 -38.328125 C 2.628906 -39.453125 4.125 -40.40625 5.65625 -41.1875 C 7.195312 -41.96875 8.832031 -42.359375 10.5625 -42.359375 C 12.070312 -42.359375 13.21875 -41.992188 14 -41.265625 C 14.789062 -40.535156 14.988281 -39.363281 14.59375 -37.75 Z M 14.59375 -37.75 " />
                </g>
                <g transform="translate(541.216364, 93.557904)">
                        <path
                            d="M 29.6875 -34.640625 C 29.6875 -32.296875 29.140625 -30.015625 28.046875 -27.796875 C 26.960938 -25.585938 24.992188 -23.296875 22.140625 -20.921875 C 19.285156 -18.546875 15.148438 -15.847656 9.734375 -12.828125 C 10.179688 -10.597656 11.113281 -9.003906 12.53125 -8.046875 C 13.957031 -7.097656 15.625 -6.625 17.53125 -6.625 C 19.539062 -6.625 21.664062 -7.039062 23.90625 -7.875 C 26.144531 -8.71875 28.238281 -9.835938 30.1875 -11.234375 C 32.144531 -12.640625 33.710938 -14.125 34.890625 -15.6875 C 36.003906 -15.90625 36.742188 -15.675781 37.109375 -15 C 37.472656 -14.332031 37.429688 -13.609375 36.984375 -12.828125 C 35.085938 -10.035156 32.8125 -7.617188 30.15625 -5.578125 C 27.5 -3.535156 24.71875 -1.984375 21.8125 -0.921875 C 18.90625 0.140625 16.082031 0.671875 13.34375 0.671875 C 10.707031 0.671875 8.3125 0.140625 6.15625 -0.921875 C 4.007812 -1.984375 2.289062 -3.628906 1 -5.859375 C -0.28125 -8.097656 -0.921875 -10.925781 -0.921875 -14.34375 C -0.921875 -16.519531 -0.625 -18.878906 -0.03125 -21.421875 C 0.550781 -23.972656 1.398438 -26.503906 2.515625 -29.015625 C 3.628906 -31.535156 5.039062 -33.828125 6.75 -35.890625 C 8.457031 -37.960938 10.425781 -39.613281 12.65625 -40.84375 C 14.894531 -42.070312 17.382812 -42.6875 20.125 -42.6875 C 22.695312 -42.6875 24.664062 -42.28125 26.03125 -41.46875 C 27.40625 -40.664062 28.359375 -39.644531 28.890625 -38.40625 C 29.421875 -37.175781 29.6875 -35.921875 29.6875 -34.640625 Z M 20.71875 -36.15625 C 18.644531 -36.15625 16.894531 -35.425781 15.46875 -33.96875 C 14.050781 -32.507812 12.921875 -30.691406 12.078125 -28.515625 C 11.234375 -26.335938 10.601562 -24.144531 10.1875 -21.9375 C 9.769531 -19.726562 9.535156 -17.894531 9.484375 -16.4375 C 13.554688 -19.007812 16.851562 -21.707031 19.375 -24.53125 C 21.894531 -27.351562 23.15625 -30.132812 23.15625 -32.875 C 23.15625 -33.832031 22.929688 -34.617188 22.484375 -35.234375 C 22.035156 -35.847656 21.445312 -36.15625 20.71875 -36.15625 Z M 20.71875 -36.15625 " />
                </g>
                <g transform="translate(20.145564, 94.093127)">
                        <path
                            d="M 35.6875 0 C 35 0 34.113281 -0.820312 33.03125 -2.46875 C 31.945312 -4.125 30.410156 -6.722656 28.421875 -10.265625 C 28.171875 -10.710938 27.484375 -11.921875 26.359375 -13.890625 C 25.242188 -15.867188 24.207031 -17.570312 23.25 -19 C 22.289062 -20.425781 21.445312 -21.546875 20.71875 -22.359375 L 14.546875 -15.40625 L 14.546875 -3.609375 L 20.109375 -3 L 20.109375 0 L 2.9375 0 L 2.9375 -3 L 8 -3.609375 L 8 -41.609375 L 3 -42.34375 L 3 -45.40625 L 19.609375 -45.40625 L 19.609375 -42.34375 L 14.546875 -41.609375 L 14.546875 -20.234375 L 32.515625 -41.609375 L 27.375 -42.34375 L 27.375 -45.40625 L 42.46875 -45.40625 L 42.46875 -42.34375 L 37.765625 -41.609375 L 24.5625 -26.828125 C 25.988281 -25.609375 27.503906 -23.835938 29.109375 -21.515625 C 30.722656 -19.191406 32.691406 -16.195312 35.015625 -12.53125 C 37.015625 -9.394531 38.472656 -7.160156 39.390625 -5.828125 C 40.304688 -4.503906 41.023438 -3.785156 41.546875 -3.671875 L 44.421875 -3 L 44.421875 0 Z M 35.6875 0 " />
                </g>
                <g transform="translate(64.507756, 94.093127)">
                        <path
                            d="M 17.78125 0.671875 C 12.851562 0.671875 9.09375 -0.9375 6.5 -4.15625 C 3.914062 -7.375 2.625 -11.671875 2.625 -17.046875 C 2.625 -20.585938 3.296875 -23.703125 4.640625 -26.390625 C 5.984375 -29.085938 7.867188 -31.164062 10.296875 -32.625 C 12.722656 -34.09375 15.484375 -34.828125 18.578125 -34.828125 C 22.367188 -34.828125 25.3125 -33.773438 27.40625 -31.671875 C 29.5 -29.578125 30.609375 -26.578125 30.734375 -22.671875 C 30.734375 -20.179688 30.59375 -18.285156 30.3125 -16.984375 L 9.28125 -16.984375 C 9.363281 -12.953125 10.300781 -9.703125 12.09375 -7.234375 C 13.882812 -4.773438 16.429688 -3.546875 19.734375 -3.546875 C 21.367188 -3.546875 23.070312 -3.835938 24.84375 -4.421875 C 26.613281 -5.015625 27.988281 -5.71875 28.96875 -6.53125 L 30.125 -3.84375 C 28.945312 -2.625 27.195312 -1.566406 24.875 -0.671875 C 22.550781 0.222656 20.1875 0.671875 17.78125 0.671875 Z M 24.015625 -20.234375 C 24.140625 -21.085938 24.203125 -21.960938 24.203125 -22.859375 C 24.160156 -25.503906 23.597656 -27.585938 22.515625 -29.109375 C 21.441406 -30.640625 19.742188 -31.40625 17.421875 -31.40625 C 15.054688 -31.40625 13.171875 -30.550781 11.765625 -28.84375 C 10.359375 -27.132812 9.550781 -24.265625 9.34375 -20.234375 Z M 24.015625 -20.234375 " />
                </g>
                <g transform="translate(97.74885, 94.093127)">
                        <path
                            d="M 6.421875 -29.203125 L 2.015625 -30.3125 L 2.015625 -33.609375 L 10.75 -34.703125 L 10.9375 -34.703125 L 12.21875 -33.609375 L 12.21875 -31.046875 L 12.15625 -29.578125 C 13.625 -30.878906 15.5625 -32.054688 17.96875 -33.109375 C 20.375 -34.171875 22.675781 -34.703125 24.875 -34.703125 C 27.4375 -34.703125 29.421875 -34.210938 30.828125 -33.234375 C 32.234375 -32.265625 33.222656 -30.769531 33.796875 -28.75 C 34.367188 -26.738281 34.65625 -24.019531 34.65625 -20.59375 L 34.65625 -3.484375 L 38.921875 -3.0625 L 38.921875 0 L 24.4375 0 L 24.4375 -3 L 28.234375 -3.484375 L 28.234375 -20.65625 C 28.234375 -23.0625 28.066406 -24.945312 27.734375 -26.3125 C 27.410156 -27.675781 26.800781 -28.691406 25.90625 -29.359375 C 25.007812 -30.035156 23.707031 -30.375 22 -30.375 C 20.53125 -30.375 18.957031 -30.003906 17.28125 -29.265625 C 15.613281 -28.535156 14.128906 -27.679688 12.828125 -26.703125 L 12.828125 -3.546875 L 16.984375 -3 L 16.984375 0 L 2.5625 0 L 2.5625 -3 L 6.421875 -3.546875 Z M 6.421875 -29.203125 " />
                </g>
                <g transform="translate(138.322536, 94.093127)">
                        <path
                            d="M 2.75 -17.046875 C 2.75 -20.710938 3.5 -23.890625 5 -26.578125 C 6.507812 -29.265625 8.5 -31.3125 10.96875 -32.71875 C 13.4375 -34.125 16.070312 -34.828125 18.875 -34.828125 C 24.007812 -34.828125 27.867188 -33.195312 30.453125 -29.9375 C 33.046875 -26.6875 34.34375 -22.410156 34.34375 -17.109375 C 34.34375 -13.398438 33.585938 -10.203125 32.078125 -7.515625 C 30.578125 -4.828125 28.59375 -2.789062 26.125 -1.40625 C 23.65625 -0.0195312 21.015625 0.671875 18.203125 0.671875 C 13.078125 0.671875 9.21875 -0.957031 6.625 -4.21875 C 4.039062 -7.476562 2.75 -11.753906 2.75 -17.046875 Z M 18.578125 -2.8125 C 21.390625 -2.8125 23.546875 -3.972656 25.046875 -6.296875 C 26.554688 -8.617188 27.3125 -12.0625 27.3125 -16.625 C 27.3125 -21.144531 26.617188 -24.726562 25.234375 -27.375 C 23.847656 -30.019531 21.628906 -31.34375 18.578125 -31.34375 C 15.765625 -31.34375 13.59375 -30.179688 12.0625 -27.859375 C 10.539062 -25.535156 9.78125 -22.09375 9.78125 -17.53125 C 9.78125 -13.007812 10.492188 -9.425781 11.921875 -6.78125 C 13.347656 -4.132812 15.566406 -2.8125 18.578125 -2.8125 Z M 18.578125 -2.8125 " />
                </g>
                <g transform="translate(175.474346, 94.093127)">
                        <path
                            d="M 8.4375 -4.890625 C 8.84375 -4.273438 9.707031 -3.722656 11.03125 -3.234375 C 12.351562 -2.742188 13.75 -2.5 15.21875 -2.5 C 17.539062 -2.5 19.25 -2.945312 20.34375 -3.84375 C 21.445312 -4.738281 22 -5.984375 22 -7.578125 C 22 -8.679688 21.648438 -9.640625 20.953125 -10.453125 C 20.265625 -11.265625 19.296875 -11.984375 18.046875 -12.609375 C 16.804688 -13.242188 15.023438 -14.007812 12.703125 -14.90625 C 9.566406 -16.09375 7.273438 -17.507812 5.828125 -19.15625 C 4.390625 -20.800781 3.671875 -22.972656 3.671875 -25.671875 C 3.671875 -27.460938 4.207031 -29.03125 5.28125 -30.375 C 6.363281 -31.71875 7.851562 -32.765625 9.75 -33.515625 C 11.644531 -34.273438 13.753906 -34.65625 16.078125 -34.65625 C 17.941406 -34.65625 19.578125 -34.507812 20.984375 -34.21875 C 22.390625 -33.9375 23.519531 -33.648438 24.375 -33.359375 C 25.238281 -33.078125 25.8125 -32.894531 26.09375 -32.8125 L 26.09375 -25.234375 L 22.359375 -25.234375 L 21.140625 -29.765625 C 20.898438 -30.253906 20.25 -30.671875 19.1875 -31.015625 C 18.125 -31.359375 16.941406 -31.53125 15.640625 -31.53125 C 13.804688 -31.53125 12.328125 -31.125 11.203125 -30.3125 C 10.085938 -29.5 9.53125 -28.398438 9.53125 -27.015625 C 9.53125 -25.785156 9.828125 -24.773438 10.421875 -23.984375 C 11.015625 -23.191406 11.757812 -22.550781 12.65625 -22.0625 C 13.550781 -21.570312 14.769531 -21 16.3125 -20.34375 L 17.53125 -19.859375 C 19.8125 -18.960938 21.664062 -18.109375 23.09375 -17.296875 C 24.519531 -16.484375 25.710938 -15.410156 26.671875 -14.078125 C 27.628906 -12.753906 28.109375 -11.140625 28.109375 -9.234375 C 28.109375 -6.210938 26.9375 -3.804688 24.59375 -2.015625 C 22.25 -0.222656 19.039062 0.671875 14.96875 0.671875 C 12.976562 0.671875 10.890625 0.394531 8.703125 -0.15625 C 6.523438 -0.707031 4.742188 -1.265625 3.359375 -1.828125 L 3.359375 -9.65625 L 7.328125 -9.65625 Z M 8.4375 -4.890625 " />
                </g>
                <g transform="translate(206.332342, 94.093127)">
                        <path
                            d="M 6.046875 -45.59375 L 0.921875 -46.265625 L 0.921875 -48.890625 L 10.875 -50.046875 L 11 -50.046875 L 12.34375 -49.125 L 12.34375 -34.953125 L 12.09375 -29.765625 C 13.40625 -30.941406 15.203125 -32.054688 17.484375 -33.109375 C 19.765625 -34.171875 22.0625 -34.703125 24.375 -34.703125 C 26.945312 -34.703125 28.945312 -34.210938 30.375 -33.234375 C 31.800781 -32.265625 32.796875 -30.769531 33.359375 -28.75 C 33.929688 -26.738281 34.21875 -24.019531 34.21875 -20.59375 L 34.21875 -3.546875 L 38.5 -3 L 38.5 0 L 23.890625 0 L 23.890625 -3 L 27.859375 -3.546875 L 27.859375 -20.65625 C 27.859375 -23.0625 27.695312 -24.945312 27.375 -26.3125 C 27.050781 -27.675781 26.441406 -28.691406 25.546875 -29.359375 C 24.648438 -30.035156 23.304688 -30.375 21.515625 -30.375 C 20.046875 -30.375 18.472656 -30.003906 16.796875 -29.265625 C 15.128906 -28.535156 13.664062 -27.679688 12.40625 -26.703125 L 12.40625 -3.546875 L 16.625 -3 L 16.625 0 L 2.390625 0 L 2.390625 -3 L 6.046875 -3.484375 Z M 6.046875 -45.59375 " />
                </g>
                <g transform="translate(246.600503, 94.093127)">
                        <path
                            d="M 2.75 -9.171875 C 2.75 -12.992188 4.660156 -15.8125 8.484375 -17.625 C 12.316406 -19.4375 17.164062 -20.40625 23.03125 -20.53125 L 23.03125 -22.25 C 23.03125 -24.15625 22.828125 -25.660156 22.421875 -26.765625 C 22.015625 -27.867188 21.3125 -28.671875 20.3125 -29.171875 C 19.320312 -29.679688 17.910156 -29.9375 16.078125 -29.9375 C 13.992188 -29.9375 12.125 -29.640625 10.46875 -29.046875 C 8.820312 -28.460938 7.1875 -27.742188 5.5625 -26.890625 L 4.03125 -30.0625 C 4.5625 -30.507812 5.539062 -31.097656 6.96875 -31.828125 C 8.394531 -32.566406 10.046875 -33.222656 11.921875 -33.796875 C 13.796875 -34.367188 15.664062 -34.65625 17.53125 -34.65625 C 20.425781 -34.65625 22.71875 -34.253906 24.40625 -33.453125 C 26.101562 -32.660156 27.316406 -31.390625 28.046875 -29.640625 C 28.785156 -27.890625 29.15625 -25.546875 29.15625 -22.609375 L 29.15625 -3 L 32.75 -3 L 32.75 -0.3125 C 31.9375 -0.101562 30.910156 0.0976562 29.671875 0.296875 C 28.429688 0.503906 27.34375 0.609375 26.40625 0.609375 C 25.257812 0.609375 24.484375 0.4375 24.078125 0.09375 C 23.671875 -0.25 23.46875 -1.015625 23.46875 -2.203125 L 23.46875 -4.21875 C 22.238281 -3 20.738281 -1.878906 18.96875 -0.859375 C 17.195312 0.160156 15.191406 0.671875 12.953125 0.671875 C 10.023438 0.671875 7.59375 -0.171875 5.65625 -1.859375 C 3.71875 -3.554688 2.75 -5.992188 2.75 -9.171875 Z M 15.578125 -3.484375 C 16.640625 -3.484375 17.863281 -3.804688 19.25 -4.453125 C 20.632812 -5.109375 21.894531 -5.882812 23.03125 -6.78125 L 23.03125 -17.296875 C 18.59375 -17.296875 15.242188 -16.613281 12.984375 -15.25 C 10.722656 -13.882812 9.59375 -12.101562 9.59375 -9.90625 C 9.59375 -7.695312 10.128906 -6.070312 11.203125 -5.03125 C 12.285156 -4 13.742188 -3.484375 15.578125 -3.484375 Z M 15.578125 -3.484375 " />
                </g>
                <g transform="translate(583.817427, 94.093127)">
                        <path
                            d="M 23.09375 0.671875 C 18.613281 0.671875 14.796875 -0.296875 11.640625 -2.234375 C 8.484375 -4.171875 6.085938 -6.890625 4.453125 -10.390625 C 2.828125 -13.890625 2.015625 -18.003906 2.015625 -22.734375 C 2.015625 -27.296875 2.972656 -31.328125 4.890625 -34.828125 C 6.804688 -38.335938 9.429688 -41.054688 12.765625 -42.984375 C 16.109375 -44.921875 19.859375 -45.890625 24.015625 -45.890625 C 27.148438 -45.890625 30.921875 -45.398438 35.328125 -44.421875 L 37.34375 -44.0625 L 36.734375 -33.0625 L 32.625 -33.0625 L 31.109375 -40.828125 C 30.535156 -41.304688 29.546875 -41.71875 28.140625 -42.0625 C 26.734375 -42.414062 25.015625 -42.59375 22.984375 -42.59375 C 20.367188 -42.59375 18.039062 -41.847656 16 -40.359375 C 13.96875 -38.867188 12.367188 -36.675781 11.203125 -33.78125 C 10.046875 -30.894531 9.46875 -27.4375 9.46875 -23.40625 C 9.46875 -19.570312 9.976562 -16.085938 11 -12.953125 C 12.019531 -9.816406 13.566406 -7.320312 15.640625 -5.46875 C 17.722656 -3.613281 20.289062 -2.6875 23.34375 -2.6875 C 25.5 -2.6875 27.15625 -2.867188 28.3125 -3.234375 C 29.476562 -3.597656 30.46875 -4.128906 31.28125 -4.828125 L 33.859375 -10.8125 L 37.703125 -10.328125 L 36.234375 -1.65625 C 35.378906 -1.613281 34.117188 -1.328125 32.453125 -0.796875 C 30.984375 -0.347656 29.566406 0.00390625 28.203125 0.265625 C 26.835938 0.535156 25.132812 0.671875 23.09375 0.671875 Z M 23.09375 0.671875 " />
                </g>
                <g transform="translate(623.718958, 94.093127)">
                        <path
                            d="M 17.78125 0.671875 C 12.851562 0.671875 9.09375 -0.9375 6.5 -4.15625 C 3.914062 -7.375 2.625 -11.671875 2.625 -17.046875 C 2.625 -20.585938 3.296875 -23.703125 4.640625 -26.390625 C 5.984375 -29.085938 7.867188 -31.164062 10.296875 -32.625 C 12.722656 -34.09375 15.484375 -34.828125 18.578125 -34.828125 C 22.367188 -34.828125 25.3125 -33.773438 27.40625 -31.671875 C 29.5 -29.578125 30.609375 -26.578125 30.734375 -22.671875 C 30.734375 -20.179688 30.59375 -18.285156 30.3125 -16.984375 L 9.28125 -16.984375 C 9.363281 -12.953125 10.300781 -9.703125 12.09375 -7.234375 C 13.882812 -4.773438 16.429688 -3.546875 19.734375 -3.546875 C 21.367188 -3.546875 23.070312 -3.835938 24.84375 -4.421875 C 26.613281 -5.015625 27.988281 -5.71875 28.96875 -6.53125 L 30.125 -3.84375 C 28.945312 -2.625 27.195312 -1.566406 24.875 -0.671875 C 22.550781 0.222656 20.1875 0.671875 17.78125 0.671875 Z M 24.015625 -20.234375 C 24.140625 -21.085938 24.203125 -21.960938 24.203125 -22.859375 C 24.160156 -25.503906 23.597656 -27.585938 22.515625 -29.109375 C 21.441406 -30.640625 19.742188 -31.40625 17.421875 -31.40625 C 15.054688 -31.40625 13.171875 -30.550781 11.765625 -28.84375 C 10.359375 -27.132812 9.550781 -24.265625 9.34375 -20.234375 Z M 24.015625 -20.234375 " />
                </g>
                <g transform="translate(656.960051, 94.093127)">
                        <path
                            d="M 6.421875 -29.203125 L 2.015625 -30.3125 L 2.015625 -33.609375 L 10.75 -34.703125 L 10.9375 -34.703125 L 12.21875 -33.609375 L 12.21875 -31.046875 L 12.15625 -29.578125 C 13.625 -30.878906 15.5625 -32.054688 17.96875 -33.109375 C 20.375 -34.171875 22.675781 -34.703125 24.875 -34.703125 C 27.4375 -34.703125 29.421875 -34.210938 30.828125 -33.234375 C 32.234375 -32.265625 33.222656 -30.769531 33.796875 -28.75 C 34.367188 -26.738281 34.65625 -24.019531 34.65625 -20.59375 L 34.65625 -3.484375 L 38.921875 -3.0625 L 38.921875 0 L 24.4375 0 L 24.4375 -3 L 28.234375 -3.484375 L 28.234375 -20.65625 C 28.234375 -23.0625 28.066406 -24.945312 27.734375 -26.3125 C 27.410156 -27.675781 26.800781 -28.691406 25.90625 -29.359375 C 25.007812 -30.035156 23.707031 -30.375 22 -30.375 C 20.53125 -30.375 18.957031 -30.003906 17.28125 -29.265625 C 15.613281 -28.535156 14.128906 -27.679688 12.828125 -26.703125 L 12.828125 -3.546875 L 16.984375 -3 L 16.984375 0 L 2.5625 0 L 2.5625 -3 L 6.421875 -3.546875 Z M 6.421875 -29.203125 " />
                </g>
                <g transform="translate(697.533738, 94.093127)">
                        <path
                            d="M 13.203125 0.609375 C 10.878906 0.609375 9.144531 0.0820312 8 -0.96875 C 6.863281 -2.03125 6.296875 -3.847656 6.296875 -6.421875 L 6.296875 -29.875 L 1.890625 -29.875 L 1.890625 -32.625 C 2.097656 -32.664062 2.671875 -32.804688 3.609375 -33.046875 C 4.546875 -33.296875 5.175781 -33.523438 5.5 -33.734375 C 6.15625 -34.097656 6.664062 -34.832031 7.03125 -35.9375 C 7.351562 -36.707031 7.738281 -37.945312 8.1875 -39.65625 C 8.632812 -41.363281 8.898438 -42.382812 8.984375 -42.71875 L 12.59375 -42.71875 L 12.703125 -33.921875 L 22.921875 -33.921875 L 22.921875 -29.875 L 12.703125 -29.875 L 12.703125 -11.125 C 12.703125 -8.800781 12.773438 -7.171875 12.921875 -6.234375 C 13.066406 -5.296875 13.375 -4.679688 13.84375 -4.390625 C 14.3125 -4.109375 15.113281 -3.96875 16.25 -3.96875 C 17.351562 -3.96875 18.566406 -4.109375 19.890625 -4.390625 C 21.210938 -4.679688 22.242188 -4.988281 22.984375 -5.3125 L 23.890625 -2.5625 C 22.910156 -1.832031 21.332031 -1.117188 19.15625 -0.421875 C 16.976562 0.265625 14.992188 0.609375 13.203125 0.609375 Z M 13.203125 0.609375 " />
                </g>
                <g transform="translate(722.403453, 94.093127)">
                        <path
                            d="M 17.78125 0.671875 C 12.851562 0.671875 9.09375 -0.9375 6.5 -4.15625 C 3.914062 -7.375 2.625 -11.671875 2.625 -17.046875 C 2.625 -20.585938 3.296875 -23.703125 4.640625 -26.390625 C 5.984375 -29.085938 7.867188 -31.164062 10.296875 -32.625 C 12.722656 -34.09375 15.484375 -34.828125 18.578125 -34.828125 C 22.367188 -34.828125 25.3125 -33.773438 27.40625 -31.671875 C 29.5 -29.578125 30.609375 -26.578125 30.734375 -22.671875 C 30.734375 -20.179688 30.59375 -18.285156 30.3125 -16.984375 L 9.28125 -16.984375 C 9.363281 -12.953125 10.300781 -9.703125 12.09375 -7.234375 C 13.882812 -4.773438 16.429688 -3.546875 19.734375 -3.546875 C 21.367188 -3.546875 23.070312 -3.835938 24.84375 -4.421875 C 26.613281 -5.015625 27.988281 -5.71875 28.96875 -6.53125 L 30.125 -3.84375 C 28.945312 -2.625 27.195312 -1.566406 24.875 -0.671875 C 22.550781 0.222656 20.1875 0.671875 17.78125 0.671875 Z M 24.015625 -20.234375 C 24.140625 -21.085938 24.203125 -21.960938 24.203125 -22.859375 C 24.160156 -25.503906 23.597656 -27.585938 22.515625 -29.109375 C 21.441406 -30.640625 19.742188 -31.40625 17.421875 -31.40625 C 15.054688 -31.40625 13.171875 -30.550781 11.765625 -28.84375 C 10.359375 -27.132812 9.550781 -24.265625 9.34375 -20.234375 Z M 24.015625 -20.234375 " />
                </g>
                <g transform="translate(755.644546, 94.093127)">
                        <path
                            d="M 2.875 -3 L 7.453125 -3.359375 L 7.453125 -29.203125 L 3.0625 -30.3125 L 3.0625 -33.609375 L 11.484375 -34.703125 L 11.609375 -34.703125 L 12.953125 -33.609375 L 12.953125 -32.515625 L 12.765625 -27.75 L 12.953125 -27.75 C 13.359375 -28.4375 14.09375 -29.328125 15.15625 -30.421875 C 16.21875 -31.523438 17.582031 -32.535156 19.25 -33.453125 C 20.914062 -34.367188 22.726562 -34.828125 24.6875 -34.828125 C 25.5 -34.828125 26.171875 -34.726562 26.703125 -34.53125 L 26.703125 -27.6875 C 26.421875 -27.882812 25.960938 -28.070312 25.328125 -28.25 C 24.691406 -28.4375 23.988281 -28.53125 23.21875 -28.53125 C 19.84375 -28.53125 16.707031 -27.492188 13.8125 -25.421875 L 13.8125 -3.421875 L 21.578125 -2.9375 L 21.578125 0 L 2.875 0 Z M 2.875 -3 " />
                </g>
            </g>
        </mask>
    </defs>

    <!-- Gradient as the global fill applied through the mask -->
    <rect width="100%" height="100%" fill="url(#gold-gradient)" mask="url(#combined-mask)" />
</svg>
